<svg width="259" height="25" viewBox="0 0 259 25" fill="none" xmlns="http://www.w3.org/2000/svg">
<path d="M0.4275 24H4.2995V15.216C4.2995 14.2133 4.48083 13.3227 4.8435 12.544C5.21683 11.7653 5.79817 11.1627 6.5875 10.736C7.12083 10.4267 7.71817 10.2453 8.3795 10.192C9.04083 10.128 9.63283 10.1707 10.1555 10.32V6.72C9.37683 6.60267 8.57683 6.61867 7.7555 6.768C6.93417 6.90667 6.2035 7.19467 5.5635 7.632C5.20083 7.856 4.8755 8.128 4.5875 8.448C4.2995 8.75733 4.04883 9.104 3.8355 9.488V6.72H0.4275V24ZM20.5283 24.48C22.2563 24.48 23.7656 24.096 25.0563 23.328C26.3469 22.5493 27.3496 21.4773 28.0643 20.112C28.7896 18.736 29.1523 17.152 29.1523 15.36C29.1523 13.5787 28.7949 12.0053 28.0803 10.64C27.3656 9.264 26.3629 8.18667 25.0723 7.408C23.7816 6.62933 22.2669 6.24 20.5283 6.24C18.8323 6.24 17.3389 6.624 16.0483 7.392C14.7576 8.16 13.7496 9.22667 13.0243 10.592C12.2989 11.9573 11.9363 13.5467 11.9363 15.36C11.9363 17.1413 12.2883 18.72 12.9923 20.096C13.7069 21.4613 14.7096 22.5333 16.0003 23.312C17.2909 24.0907 18.8003 24.48 20.5283 24.48ZM20.5283 20.864C19.0456 20.864 17.9203 20.368 17.1523 19.376C16.3949 18.3733 16.0163 17.0347 16.0163 15.36C16.0163 13.728 16.3789 12.4053 17.1043 11.392C17.8403 10.368 18.9816 9.856 20.5283 9.856C22.0429 9.856 23.1789 10.3573 23.9363 11.36C24.6936 12.352 25.0723 13.6853 25.0723 15.36C25.0723 16.9813 24.6936 18.304 23.9363 19.328C23.1896 20.352 22.0536 20.864 20.5283 20.864ZM40.1815 24.48C42.1122 24.48 43.7442 24.0107 45.0775 23.072C46.4108 22.1227 47.3442 20.768 47.8775 19.008L43.9415 18.128C43.6428 19.0133 43.1948 19.6907 42.5975 20.16C42.0108 20.6293 41.2055 20.864 40.1815 20.864C38.7308 20.864 37.6375 20.3573 36.9015 19.344C36.1762 18.3307 35.8082 17.0027 35.7975 15.36C35.8082 13.7707 36.1602 12.4587 36.8535 11.424C37.5575 10.3787 38.6668 9.856 40.1815 9.856C41.0668 9.856 41.8562 10.1173 42.5495 10.64C43.2428 11.152 43.7388 11.872 44.0375 12.8L47.8775 11.76C47.4722 10.0533 46.5868 8.70933 45.2215 7.728C43.8562 6.736 42.1922 6.24 40.2295 6.24C38.4802 6.24 36.9708 6.63467 35.7015 7.424C34.4322 8.20267 33.4508 9.28 32.7575 10.656C32.0748 12.0213 31.7282 13.5893 31.7175 15.36C31.7282 17.0987 32.0642 18.656 32.7255 20.032C33.3975 21.408 34.3628 22.496 35.6215 23.296C36.8802 24.0853 38.4002 24.48 40.1815 24.48ZM51.0518 24H54.9878V15.68L61.5958 24H66.6998L59.4198 15.36L66.1238 6.72H61.3078L54.9878 15.04V0.959999H51.0838L51.0518 24ZM75.846 24.48C77.51 24.48 79.03 24.0533 80.406 23.2C81.7927 22.336 82.8167 21.12 83.478 19.552L79.67 18.4C78.902 20.0427 77.5527 20.864 75.622 20.864C74.31 20.864 73.2753 20.4853 72.518 19.728C71.7607 18.96 71.3073 17.8613 71.158 16.432H83.67C83.8193 14.352 83.59 12.5493 82.982 11.024C82.374 9.49867 81.4407 8.32 80.182 7.488C78.934 6.656 77.414 6.24 75.622 6.24C73.926 6.24 72.4327 6.624 71.142 7.392C69.8513 8.14933 68.8433 9.22667 68.118 10.624C67.3927 12.0213 67.03 13.664 67.03 15.552C67.03 17.3013 67.398 18.848 68.134 20.192C68.8807 21.536 69.9153 22.5867 71.238 23.344C72.5607 24.1013 74.0967 24.48 75.846 24.48ZM75.782 9.616C76.9767 9.616 77.894 9.93067 78.534 10.56C79.1847 11.1787 79.5953 12.1653 79.766 13.52H71.254C71.7127 10.9173 73.222 9.616 75.782 9.616ZM97.368 24V20.768C96.2907 20.928 95.3307 20.9707 94.488 20.896C93.6453 20.8213 93.032 20.464 92.648 19.824C92.4453 19.4933 92.3333 19.0667 92.312 18.544C92.3013 18.0107 92.296 17.4027 92.296 16.72V9.744H97.368V6.72H92.296V1.92H88.456V6.72H85.32V9.744H88.456V16.944C88.456 17.936 88.4667 18.8213 88.488 19.6C88.5093 20.368 88.7173 21.1253 89.112 21.872C89.56 22.6933 90.216 23.296 91.08 23.68C91.944 24.0533 92.92 24.2507 94.008 24.272C95.1067 24.304 96.2267 24.2133 97.368 24ZM107.713 24.48C109.643 24.48 111.275 24.0107 112.609 23.072C113.942 22.1227 114.875 20.768 115.409 19.008L111.473 18.128C111.174 19.0133 110.726 19.6907 110.129 20.16C109.542 20.6293 108.737 20.864 107.713 20.864C106.262 20.864 105.169 20.3573 104.433 19.344C103.707 18.3307 103.339 17.0027 103.329 15.36C103.339 13.7707 103.691 12.4587 104.385 11.424C105.089 10.3787 106.198 9.856 107.713 9.856C108.598 9.856 109.387 10.1173 110.081 10.64C110.774 11.152 111.27 11.872 111.569 12.8L115.409 11.76C115.003 10.0533 114.118 8.70933 112.753 7.728C111.387 6.736 109.723 6.24 107.761 6.24C106.011 6.24 104.502 6.63467 103.233 7.424C101.963 8.20267 100.982 9.28 100.289 10.656C99.6061 12.0213 99.2594 13.5893 99.2488 15.36C99.2594 17.0987 99.5954 18.656 100.257 20.032C100.929 21.408 101.894 22.496 103.153 23.296C104.411 24.0853 105.931 24.48 107.713 24.48ZM125.778 24.48C127.506 24.48 129.016 24.096 130.306 23.328C131.597 22.5493 132.6 21.4773 133.314 20.112C134.04 18.736 134.402 17.152 134.402 15.36C134.402 13.5787 134.045 12.0053 133.33 10.64C132.616 9.264 131.613 8.18667 130.322 7.408C129.032 6.62933 127.517 6.24 125.778 6.24C124.082 6.24 122.589 6.624 121.298 7.392C120.008 8.16 119 9.22667 118.274 10.592C117.549 11.9573 117.186 13.5467 117.186 15.36C117.186 17.1413 117.538 18.72 118.242 20.096C118.957 21.4613 119.96 22.5333 121.25 23.312C122.541 24.0907 124.05 24.48 125.778 24.48ZM125.778 20.864C124.296 20.864 123.17 20.368 122.402 19.376C121.645 18.3733 121.266 17.0347 121.266 15.36C121.266 13.728 121.629 12.4053 122.354 11.392C123.09 10.368 124.232 9.856 125.778 9.856C127.293 9.856 128.429 10.3573 129.186 11.36C129.944 12.352 130.322 13.6853 130.322 15.36C130.322 16.9813 129.944 18.304 129.186 19.328C128.44 20.352 127.304 20.864 125.778 20.864ZM137.896 24H141.8V15.12C141.8 13.7227 141.997 12.6453 142.392 11.888C142.797 11.12 143.309 10.592 143.928 10.304C144.557 10.0053 145.197 9.856 145.848 9.856C146.765 9.856 147.496 10.0587 148.04 10.464C148.584 10.8587 148.984 11.3653 149.24 11.984C149.506 12.592 149.677 13.2267 149.752 13.888C149.837 14.5493 149.88 15.1467 149.88 15.68V24H153.784V14.352C153.784 13.9467 153.746 13.408 153.672 12.736C153.608 12.064 153.458 11.3547 153.224 10.608C152.989 9.86133 152.626 9.15733 152.135 8.496C151.645 7.824 150.978 7.28 150.136 6.864C149.304 6.43733 148.253 6.224 146.984 6.224C145.736 6.224 144.637 6.44267 143.688 6.88C142.749 7.30667 141.965 7.89333 141.336 8.64V6.72H137.896V24ZM168.087 24V20.768C167.009 20.928 166.049 20.9707 165.207 20.896C164.364 20.8213 163.751 20.464 163.367 19.824C163.164 19.4933 163.052 19.0667 163.031 18.544C163.02 18.0107 163.015 17.4027 163.015 16.72V9.744H168.087V6.72H163.015V1.92H159.175V6.72H156.039V9.744H159.175V16.944C159.175 17.936 159.185 18.8213 159.207 19.6C159.228 20.368 159.436 21.1253 159.831 21.872C160.279 22.6933 160.935 23.296 161.799 23.68C162.663 24.0533 163.639 24.2507 164.727 24.272C165.825 24.304 166.945 24.2133 168.087 24ZM178.784 24.48C180.448 24.48 181.968 24.0533 183.344 23.2C184.73 22.336 185.754 21.12 186.416 19.552L182.608 18.4C181.84 20.0427 180.49 20.864 178.56 20.864C177.248 20.864 176.213 20.4853 175.456 19.728C174.698 18.96 174.245 17.8613 174.096 16.432H186.608C186.757 14.352 186.528 12.5493 185.92 11.024C185.312 9.49867 184.378 8.32 183.12 7.488C181.872 6.656 180.352 6.24 178.56 6.24C176.864 6.24 175.37 6.624 174.08 7.392C172.789 8.14933 171.781 9.22667 171.056 10.624C170.33 12.0213 169.968 13.664 169.968 15.552C169.968 17.3013 170.336 18.848 171.072 20.192C171.818 21.536 172.853 22.5867 174.176 23.344C175.498 24.1013 177.034 24.48 178.784 24.48ZM178.72 9.616C179.914 9.616 180.832 9.93067 181.472 10.56C182.122 11.1787 182.533 12.1653 182.704 13.52H174.192C174.65 10.9173 176.16 9.616 178.72 9.616ZM189.677 24H193.581V15.12C193.581 13.7227 193.778 12.6453 194.173 11.888C194.578 11.12 195.09 10.592 195.709 10.304C196.338 10.0053 196.978 9.856 197.629 9.856C198.546 9.856 199.277 10.0587 199.821 10.464C200.365 10.8587 200.765 11.3653 201.021 11.984C201.287 12.592 201.458 13.2267 201.533 13.888C201.618 14.5493 201.661 15.1467 201.661 15.68V24H205.565V14.352C205.565 13.9467 205.527 13.408 205.453 12.736C205.389 12.064 205.239 11.3547 205.005 10.608C204.77 9.86133 204.407 9.15733 203.917 8.496C203.426 7.824 202.759 7.28 201.917 6.864C201.085 6.43733 200.034 6.224 198.765 6.224C197.517 6.224 196.418 6.44267 195.469 6.88C194.53 7.30667 193.746 7.89333 193.117 8.64V6.72H189.677V24ZM219.868 24V20.768C218.791 20.928 217.831 20.9707 216.988 20.896C216.145 20.8213 215.532 20.464 215.148 19.824C214.945 19.4933 214.833 19.0667 214.812 18.544C214.801 18.0107 214.796 17.4027 214.796 16.72V9.744H219.868V6.72H214.796V1.92H210.956V6.72H207.82V9.744H210.956V16.944C210.956 17.936 210.967 18.8213 210.988 19.6C211.009 20.368 211.217 21.1253 211.612 21.872C212.06 22.6933 212.716 23.296 213.58 23.68C214.444 24.0533 215.42 24.2507 216.508 24.272C217.607 24.304 218.727 24.2133 219.868 24ZM224.224 24H228.176V20.048H224.224V24ZM233.623 4.096H237.479V0.559999H233.623V4.096ZM233.623 24H237.479V6.72H233.623V24ZM249.903 24.48C251.631 24.48 253.141 24.096 254.431 23.328C255.722 22.5493 256.725 21.4773 257.439 20.112C258.165 18.736 258.527 17.152 258.527 15.36C258.527 13.5787 258.17 12.0053 257.455 10.64C256.741 9.264 255.738 8.18667 254.447 7.408C253.157 6.62933 251.642 6.24 249.903 6.24C248.207 6.24 246.714 6.624 245.423 7.392C244.133 8.16 243.125 9.22667 242.399 10.592C241.674 11.9573 241.311 13.5467 241.311 15.36C241.311 17.1413 241.663 18.72 242.367 20.096C243.082 21.4613 244.085 22.5333 245.375 23.312C246.666 24.0907 248.175 24.48 249.903 24.48ZM249.903 20.864C248.421 20.864 247.295 20.368 246.527 19.376C245.77 18.3733 245.391 17.0347 245.391 15.36C245.391 13.728 245.754 12.4053 246.479 11.392C247.215 10.368 248.357 9.856 249.903 9.856C251.418 9.856 252.554 10.3573 253.311 11.36C254.069 12.352 254.447 13.6853 254.447 15.36C254.447 16.9813 254.069 18.304 253.311 19.328C252.565 20.352 251.429 20.864 249.903 20.864Z" fill="#18191F"/>
</svg>
